<svg width="127" height="24" viewBox="0 0 127 24" fill="none" xmlns="http://www.w3.org/2000/svg">
<path d="M8.70109 22L2 2H9.26949L14.6842 18.8857H11.0345L16.7783 2H23.27L28.6249 18.8857H25.1247L30.7788 2H37.4799L30.7788 22H23.2101L18.8425 8.17143H20.8767L16.2697 22H8.70109Z" fill="white"/>
<path d="M47.0052 9.42857H56.3388V14.2857H47.0052V9.42857ZM47.4838 16.9143H57.9543V22H40.5434V2H57.5654V7.08571H47.4838V16.9143Z" fill="white"/>
<path d="M62.1679 22V2H73.3564C76.2482 2 78.3822 2.49524 79.7583 3.48572C81.1344 4.45714 81.8225 5.70476 81.8225 7.22857C81.8225 8.2381 81.5233 9.14286 80.925 9.94286C80.3466 10.7238 79.499 11.3429 78.3822 11.8C77.2653 12.2571 75.8892 12.4857 74.2538 12.4857L74.8521 10.9429C76.4875 10.9429 77.8936 11.1619 79.0702 11.6C80.2669 12.0381 81.1843 12.6762 81.8225 13.5143C82.4806 14.3333 82.8097 15.3238 82.8097 16.4857C82.8097 18.219 82.0518 19.5714 80.5361 20.5429C79.0403 21.5143 76.8465 22 73.9547 22H62.1679ZM69.1084 17.2857H73.3564C74.1342 17.2857 74.7125 17.1524 75.0915 16.8857C75.4903 16.619 75.6898 16.2286 75.6898 15.7143C75.6898 15.2 75.4903 14.8095 75.0915 14.5429C74.7125 14.2762 74.1342 14.1429 73.3564 14.1429H68.6297V9.68571H72.3991C73.1968 9.68571 73.7752 9.5619 74.1342 9.31429C74.5131 9.04762 74.7026 8.67619 74.7026 8.2C74.7026 7.70476 74.5131 7.33333 74.1342 7.08571C73.7752 6.8381 73.1968 6.71429 72.3991 6.71429H69.1084V17.2857Z" fill="white"/>
<path d="M86.8015 22V2H93.8616V16.7714H103.315V22H86.8015Z" fill="white"/>
<path d="M110.042 22V13.2286L111.658 17.2571L102.145 2H109.593L116.025 12.4286H111.688L118.179 2H125L115.547 17.2571L117.102 13.2286V22H110.042Z" fill="white"/>
</svg>
