<svg width="172" height="55" viewBox="0 0 172 55" fill="none" xmlns="http://www.w3.org/2000/svg">
<path d="M46.0674 8.48968C38.9718 5.96248 31.8474 3.50908 24.6942 1.12948C24.3455 1.01933 23.9788 0.977165 23.6142 1.00528C23.2496 0.977165 22.8829 1.01933 22.5342 1.12948C15.4134 3.52348 8.2998 5.97688 1.1934 8.48968C0.873577 8.65514 0.598215 8.89505 0.390522 9.1892C0.182829 9.48336 0.0488924 9.82313 0 10.1799C0.0486 14.1219 -0.0756 18.1071 0.486 21.9843C2.5596 36.3267 10.0386 47.1915 22.3776 54.7083C22.7683 54.8968 23.1966 54.9946 23.6304 54.9946C24.0642 54.9946 24.4925 54.8968 24.8832 54.7083C28.7196 52.4061 32.2286 49.5981 35.316 46.3599V20.5857C35.3164 20.0754 35.1491 19.5791 34.8398 19.1732C34.5305 18.7673 34.0963 18.4743 33.6042 18.3393L14.8986 13.2255H38.6586C39.1212 13.2255 39.5648 13.4092 39.8919 13.7363C40.219 14.0634 40.4028 14.5071 40.4028 14.9697V39.7719C43.7589 34.3606 45.9323 28.3005 46.7802 21.9897C47.3202 18.1125 47.2122 14.1273 47.2608 10.1853C47.2136 9.82728 47.0804 9.48605 46.8726 9.19076C46.6647 8.89547 46.3885 8.65492 46.0674 8.48968ZM29.4624 32.3199C29.751 32.3199 30.0331 32.4055 30.273 32.566C30.5129 32.7264 30.6997 32.9545 30.8099 33.2212C30.9201 33.4879 30.9487 33.7813 30.892 34.0643C30.8353 34.3473 30.6959 34.6071 30.4914 34.8108C30.287 35.0144 30.0267 35.1529 29.7435 35.2085C29.4603 35.2642 29.167 35.2345 28.9007 35.1233C28.6344 35.0122 28.407 34.8244 28.2475 34.584C28.0879 34.3435 28.0033 34.0611 28.0044 33.7725C28.0037 33.5811 28.0409 33.3914 28.114 33.2145C28.1871 33.0376 28.2946 32.8769 28.4302 32.7418C28.5658 32.6067 28.7268 32.4999 28.904 32.4274C29.0812 32.355 29.271 32.3184 29.4624 32.3199ZM60.129 31.7151H72.2898C72.8298 31.7151 73.089 31.4559 73.1916 30.8889L73.8612 26.8983C73.8882 26.8207 73.8951 26.7376 73.8812 26.6567C73.8673 26.5757 73.8332 26.4996 73.782 26.4355C73.7307 26.3713 73.6641 26.3211 73.5882 26.2897C73.5124 26.2583 73.4298 26.2466 73.3482 26.2557H72.9864C71.7768 26.2557 71.3664 29.9115 69.2064 29.9115H66.5064C65.6316 29.9115 65.2482 29.0853 65.2482 28.2375V16.2117C65.2482 15.0291 66.4038 14.7213 66.4038 13.9977V13.8951C66.4038 13.5873 66.15 13.4037 65.7882 13.4037H60.1182C59.7564 13.4037 59.4972 13.5873 59.4972 13.8951V13.9977C59.4972 14.7213 60.5286 15.0291 60.5286 16.2117V28.8909C60.5286 30.0789 59.4972 30.3867 59.4972 31.1103V31.2399C59.508 31.5207 59.7672 31.6989 60.129 31.6989V31.7151ZM88.7166 19.7325L85.5468 19.2681C84.8016 19.1655 84.3102 19.4517 84.3102 20.0187V20.1699C83.443 19.4295 82.3283 19.0438 81.189 19.0899C77.949 19.0899 75.087 21.6927 75.087 25.5321C75.087 29.7549 78.0462 31.9743 81.1674 31.9743C82.3217 32.0132 83.4468 31.6073 84.3102 30.8403V31.0725C84.3077 31.1599 84.3236 31.2468 84.3567 31.3277C84.3899 31.4086 84.4396 31.4816 84.5026 31.5421C84.5657 31.6027 84.6407 31.6493 84.7229 31.6791C84.8051 31.7089 84.8926 31.7211 84.9798 31.7151H88.6626C88.9974 31.7151 89.2296 31.5369 89.2296 31.2291V31.1265C89.2296 30.4029 88.1982 30.0951 88.1982 28.9071V22.8645C88.1982 21.4443 89.3322 21.0825 89.3322 20.5425V20.4399C89.3396 20.3519 89.3295 20.2633 89.3025 20.1792C89.2755 20.0952 89.2322 20.0173 89.1749 19.95C89.1177 19.8827 89.0478 19.8275 88.9691 19.7874C88.8905 19.7472 88.8046 19.7231 88.7166 19.7163V19.7325ZM83.8566 28.5453C83.8566 29.9385 83.0844 30.7377 82.2096 30.7053C80.2764 30.6297 79.4232 25.6833 79.5096 23.5179C79.5852 21.4551 80.2818 20.3481 81.5454 20.3481C82.728 20.3481 83.862 21.6333 83.862 23.5881L83.8566 28.5453ZM104.506 24.4467C104.198 20.3535 101.806 19.0899 99.5814 19.0899C97.8804 19.0899 96.5952 19.7865 95.8986 21.0231V19.7973C95.8986 19.2573 95.5638 18.8415 94.9212 19.1763L91.3032 20.9799C90.9414 21.1635 90.6822 21.3147 90.6822 21.6279V21.7035C90.6822 22.4487 92.0484 22.6053 92.0484 23.8635V28.9395C92.0484 30.1275 90.9144 30.4353 90.9144 31.1805V31.2399C90.9144 31.5531 91.1466 31.7313 91.53 31.7313H97.0974C97.4862 31.7313 97.7184 31.5531 97.7184 31.2399V31.1319C97.7184 30.3867 96.5844 30.0789 96.5844 28.8909V23.2749C96.5844 21.7791 97.1244 20.7747 98.2584 20.7747C99.3924 20.7747 99.8784 21.7305 100.035 24.2793L100.294 28.8909C100.37 30.0789 99.3654 30.3867 99.3654 31.1319V31.2399C99.3654 31.5531 99.5976 31.7313 99.9864 31.7313H105.138C105.5 31.7313 105.754 31.5531 105.754 31.2399V31.1319C105.754 30.3867 104.906 30.0789 104.83 28.8909L104.506 24.4467ZM119.88 12.9177C119.88 12.2211 119.491 12.0645 118.746 12.2967L114.723 13.5063C114.566 13.5401 114.423 13.6233 114.316 13.7437C114.209 13.8642 114.144 14.0156 114.129 14.1759V14.2569C114.129 15.0021 115.495 15.1587 115.495 16.3683V19.7973C114.709 19.2988 113.791 19.0468 112.86 19.0737C109.62 19.0737 106.753 21.6765 106.753 25.5159C106.753 29.7387 109.717 31.9581 112.833 31.9581C113.987 31.9932 115.11 31.5877 115.976 30.8241V31.0563C115.972 31.1436 115.986 31.2308 116.018 31.3121C116.051 31.3934 116.1 31.4669 116.163 31.5277C116.226 31.5885 116.301 31.6352 116.383 31.6647C116.465 31.6942 116.553 31.7059 116.64 31.6989H120.328C120.685 31.6989 120.917 31.5207 120.917 31.2129V31.1103C120.917 30.3867 119.891 30.0789 119.891 28.8909L119.88 12.9177ZM115.501 28.5399C115.501 29.9331 114.728 30.7323 113.881 30.6999C111.947 30.6243 111.1 25.6779 111.181 23.5125C111.256 21.4497 111.953 20.3427 113.216 20.3427C114.399 20.3427 115.533 21.9141 115.533 23.5827L115.501 28.5399ZM127.877 12.8799C127.877 12.4155 127.413 11.9781 126.695 12.3399L122.801 14.2461C122.467 14.4243 122.261 14.5539 122.261 14.8401V14.9427C122.261 15.5853 123.266 15.9201 123.266 17.1297V28.8909C123.266 30.0789 122.261 30.3597 122.261 31.1103V31.2399C122.261 31.5477 122.494 31.7259 122.855 31.7259H128.423C128.785 31.7259 129.038 31.5477 129.038 31.2399V31.1373C129.038 30.3867 127.904 30.1059 127.904 28.9179L127.877 12.8799ZM137.003 19.0899C133.321 19.0899 130.048 21.6927 130.048 25.5051C130.048 29.3175 133.245 31.9851 137.187 31.9851C140.967 31.9851 144.067 29.3283 144.067 25.5699C144.067 21.8115 140.87 19.0737 137.003 19.0737V19.0899ZM137.727 30.6999C135.637 30.6999 134.606 25.6509 134.606 23.5611C134.606 21.4713 135.049 20.3211 136.285 20.3211C138.321 20.3211 139.374 25.4997 139.374 27.5085C139.374 29.5173 138.937 30.6999 137.727 30.6999ZM153.959 19.0791C153.166 19.0382 152.382 19.2682 151.737 19.7313C151.091 20.1944 150.622 20.8632 150.406 21.6279V19.7433C150.406 19.2033 150.147 18.8685 149.477 19.1763L145.843 20.8773C145.454 21.0825 145.249 21.3147 145.249 21.6225V21.7035C145.249 22.4487 146.486 22.5513 146.486 23.7609V28.8909C146.486 30.0789 145.454 30.3867 145.454 31.1103V31.2399C145.454 31.5477 145.714 31.7259 146.075 31.7259H151.616C151.978 31.7259 152.231 31.5477 152.231 31.2399V31.1373C152.231 30.4137 150.871 30.1059 150.871 28.9179V24.1011C150.871 22.9671 150.995 21.6225 151.821 21.6225C153.112 21.6225 152.053 24.0471 154.397 24.0471C155.893 24.0471 156.384 22.9131 156.384 21.6225C156.384 20.1807 155.482 19.0737 153.959 19.0737V19.0791ZM170.289 28.8963V12.9177C170.289 12.2211 169.906 12.0645 169.155 12.2967L165.137 13.5063C164.98 13.5401 164.837 13.6233 164.731 13.7437C164.624 13.8642 164.558 14.0156 164.543 14.1759V14.2569C164.543 15.0021 165.91 15.1587 165.91 16.3683V19.7973C165.118 19.2956 164.195 19.0435 163.258 19.0737C160.018 19.0737 157.151 21.6765 157.151 25.5159C157.151 29.7387 160.115 31.9581 163.231 31.9581C164.385 31.9932 165.509 31.5877 166.374 30.8241V31.0563C166.37 31.1441 166.384 31.2318 166.417 31.3135C166.45 31.3952 166.499 31.469 166.563 31.5299C166.626 31.5908 166.702 31.6373 166.785 31.6665C166.868 31.6957 166.956 31.7067 167.044 31.6989H170.732C171.088 31.6989 171.32 31.5207 171.32 31.2129V31.1103C171.32 30.3867 170.289 30.0789 170.289 28.8909V28.8963ZM165.91 28.5399C165.91 29.9331 165.137 30.7323 164.263 30.6999C162.329 30.6243 161.476 25.6779 161.563 23.5125C161.638 21.4497 162.335 20.3427 163.598 20.3427C164.862 20.3427 165.915 21.9141 165.915 23.5827L165.91 28.5399ZM58.86 39.6423H62.0028V47.6559H64.0602V39.6423H67.2192V37.8603H58.86V39.6423ZM69.9516 47.6559H76.6044V45.8523H71.9604V43.5195H76.1778V41.7807H71.9604V39.6207H76.6044V37.8387H69.9516V47.6559ZM83.7756 39.5181C84.2418 39.4947 84.7021 39.6306 85.0809 39.9034C85.4596 40.1762 85.7344 40.5697 85.86 41.0193H87.885C87.7406 40.0532 87.2375 39.1771 86.4758 38.5656C85.7142 37.9541 84.75 37.6521 83.7756 37.7199C81.1566 37.7199 79.2072 39.7773 79.2072 42.7797C79.2072 45.7821 81.1566 47.8341 83.7756 47.8341C84.7531 47.8982 85.7187 47.5904 86.4788 46.9725C87.2389 46.3546 87.7373 45.4722 87.8742 44.5023H85.86C85.7379 44.953 85.466 45.3487 85.0892 45.6245C84.7124 45.9002 84.2529 46.0396 83.7864 46.0197C82.2204 46.0197 81.297 44.6319 81.297 42.7797C81.297 40.9275 82.2096 39.5181 83.7756 39.5181ZM97.3512 41.7537H92.9124V37.8603H90.8712V47.6559H92.9124V43.5411H97.3512V47.6559H99.3924V37.8603H97.3512V41.7537Z" fill="#FCFCFC"/>
</svg>
