<svg width="98" height="103" viewBox="0 0 98 103" fill="none" xmlns="http://www.w3.org/2000/svg">
<g clip-path="url(#clip0)">
<path d="M0 61.1035V95.6401C0 99.734 3.29703 103.044 7.37494 103.044H90.6251C94.703 103.044 98 99.734 98 95.6401V61.1035C98 57.0096 94.703 53.6997 90.6251 53.6997H7.37494C3.29703 53.6997 0 57.0096 0 61.1035ZM1.73528 67.9411C1.73528 67.7234 1.90881 67.5056 2.1691 67.5056C2.42939 67.5056 2.60292 67.6798 2.60292 67.9411C2.60292 68.1589 2.42939 68.3767 2.1691 68.3767C1.90881 68.3767 1.73528 68.1589 1.73528 67.9411ZM1.77866 86.4507V70.2494C1.77866 70.0316 1.95219 69.8574 2.1691 69.8574C2.38601 69.8574 2.55954 70.0316 2.55954 70.2494V86.4507C2.55954 86.6684 2.38601 86.8426 2.1691 86.8426C1.95219 86.8426 1.77866 86.6684 1.77866 86.4507ZM95.0066 72.9496V83.7504C95.0066 84.4473 94.4427 84.9699 93.7919 84.9699C93.1412 84.9699 92.5772 84.4037 92.5772 83.7504V72.9496C92.5772 72.2528 93.1412 71.7301 93.7919 71.7301C94.4427 71.6866 95.0066 72.2528 95.0066 72.9496ZM82.0788 54.7885C86.2435 54.7885 89.5839 58.142 89.5839 62.323V94.3771C89.5839 98.5581 86.2435 101.912 82.0788 101.912H11.8867C7.722 101.912 4.38158 98.5581 4.38158 94.3771V62.323C4.38158 58.142 7.722 54.7885 11.8867 54.7885H82.0788Z" fill="#FCC425"/>
<path d="M39.0006 21.8633V23.8667C26.4198 23.8667 16.1816 34.1449 16.1816 46.7749H14.186C14.186 33.0125 25.3352 21.8633 39.0006 21.8633Z" fill="#FCC425"/>
<path d="M40.7791 22.952L36.224 28.0476L34.749 26.6975L38.0894 22.952L34.749 19.2066L36.224 17.8564L40.7791 22.952Z" fill="#FCC425"/>
<path d="M45.8984 7.4038V51.6089H46.983V11.9767C46.983 7.79577 50.3234 4.44228 54.4881 4.44228H86.4172C90.5819 4.44228 93.9223 7.79577 93.9223 11.9767V52.4364C93.9223 52.4364 94.5297 52.7848 95.0069 53.0896V7.4038C95.0069 3.30994 91.7099 0 87.6319 0H53.23C49.1955 0 45.8984 3.30994 45.8984 7.4038ZM62.3836 2.56956C62.1667 2.56956 61.9932 2.39535 61.9932 2.17759C61.9932 1.95983 62.1667 1.78562 62.3836 1.78562H78.5217C78.7386 1.78562 78.9122 1.95983 78.9122 2.17759C78.9122 2.39535 78.7386 2.56956 78.5217 2.56956H62.3836ZM81.2548 2.17759C81.2548 2.39535 81.0813 2.61311 80.821 2.61311C80.5607 2.61311 80.3871 2.4389 80.3871 2.17759C80.3871 1.95983 80.5607 1.74207 80.821 1.74207C81.0813 1.74207 81.2548 1.91628 81.2548 2.17759Z" fill="#FCC425"/>
</g>
<defs>
<clipPath id="clip0">
<rect width="98" height="103" fill="white"/>
</clipPath>
</defs>
</svg>
