<svg width="73" height="82" viewBox="0 0 73 82" fill="none" xmlns="http://www.w3.org/2000/svg">
<path d="M42.9059 76.303H42.9219H42.9059ZM42.9219 76.303L44.2352 77.6445C45.4523 78.9031 45.5805 78.9859 46.3492 79.0687C47.3582 79.1681 47.8227 79.0356 48.4152 78.5222L48.8797 78.1247L49.8246 78.5222C50.7055 78.8865 50.7695 78.9528 50.8816 79.5821C51.0258 80.5095 51.3941 81.172 52.0027 81.6191C52.5152 81.9834 52.6434 82 55.5262 82C58.2969 82 58.5531 81.9669 58.9535 81.6522C59.6582 81.1223 60.0105 80.5261 60.0906 79.7146C60.1707 78.9859 60.1867 78.9693 61.1477 78.5719L62.1406 78.1413L62.6371 78.5553C63.3898 79.135 64.1586 79.3171 64.9754 79.0853C65.5199 78.9362 66.0324 78.5222 67.4578 77.0648C69.3957 75.0941 69.748 74.5476 69.748 73.4711C69.748 72.7424 69.5719 72.2787 69.0754 71.6991C68.7551 71.3513 68.7551 71.3348 69.1555 70.2914C69.5719 69.2481 69.5719 69.2481 70.2926 69.1653C71.2215 69.0493 71.8141 68.6022 72.2785 67.6748C72.5988 67.0123 72.6309 66.7142 72.6309 64.4454C72.6309 62.1765 72.5988 61.8785 72.2785 61.216C71.8141 60.2886 71.2215 59.8415 70.2926 59.7255C69.5719 59.6427 69.5719 59.6427 69.1555 58.5994C68.7551 57.556 68.7551 57.5395 69.0754 57.1917C69.5719 56.6121 69.748 56.1484 69.748 55.4197C69.748 54.4923 69.4117 53.8133 68.4668 52.8527L67.666 52.0413V44.3073C67.666 36.3084 67.634 35.9606 66.9773 35.0332C66.3688 34.1554 65.5039 33.8242 63.7102 33.758C62.1727 33.6917 62.0605 33.6586 62.0605 33.3439C62.0605 33.1618 62.493 28.0113 63.0215 21.9169C63.8383 12.6262 63.9664 10.7383 63.8062 10.2249C63.6621 9.81084 62.7812 8.76751 60.7953 6.69739L57.9766 3.7661L57.0957 3.66673C56.6152 3.61705 50.1609 3.02086 42.7617 2.34186C35.3625 1.6463 26.9703 0.867935 24.1035 0.602959C15.9516 -0.158844 16.1598 -0.142281 15.1828 0.33799C14.366 0.735451 13.5172 1.69598 13.277 2.49091C13.2129 2.67308 12.5883 9.57899 11.8676 17.8263L10.5703 32.814L6.32617 32.8968C2.72266 32.963 2.00195 33.0293 1.58555 33.2611C0.960938 33.6089 0.272266 34.437 0.112109 35.0166C0.0480469 35.265 0 43.6283 0 53.598V71.7322L0.464453 72.7756C1.21719 74.4648 2.49844 75.3922 4.88477 75.9884C5.38125 76.1209 11.4512 76.2037 24.2637 76.2368L42.9059 76.303H42.9219ZM34.6578 4.24637C44.4914 5.15722 52.8516 5.93559 53.2359 6.00183L53.9406 6.1012L53.8285 6.9458C53.7805 7.42607 53.6844 8.70126 53.6363 9.79429C53.5562 11.5994 53.5723 11.8313 53.8766 12.3115C54.4211 13.2058 54.9816 13.388 58.1047 13.6861C59.6742 13.8517 60.9875 14.0173 61.0355 14.067C61.0836 14.1167 60.7633 18.3894 60.3148 23.573C59.8664 28.74 59.498 33.1452 59.498 33.3439V33.7248H50.8176C42.2812 33.7248 42.1371 33.7248 41.4324 34.0726C40.5996 34.5032 40.4555 34.7185 37.7969 39.6371L35.891 43.1646H24.0715H12.2359L12.332 42.0384C12.3961 41.4257 13.1648 32.4497 14.0777 22.0991C15.5191 5.33939 15.7434 3.23615 15.9996 2.93806C16.1758 2.73933 16.416 2.59027 16.5441 2.59027C16.6883 2.59027 24.8402 3.33552 34.6578 4.24637ZM59.1617 8.71783C60.427 10.0924 61.4359 11.2516 61.3879 11.2848C61.3559 11.3179 60.2828 11.2351 59.0176 11.1192C57.7363 10.9867 56.5672 10.8707 56.391 10.8707C56.1187 10.8707 56.1027 10.7714 56.1988 9.41338C56.391 6.92924 56.4871 6.23368 56.6793 6.23368C56.7754 6.23368 57.8965 7.35983 59.1617 8.71783ZM10.25 36.4905C10.0898 38.2294 9.68945 42.7506 9.68945 42.9493C9.68945 43.0983 9.4332 43.1646 8.96875 43.1646C7.59141 43.1646 6.51836 43.9761 6.16602 45.2844C6.06992 45.6819 6.00586 50.7164 6.00586 59.709V73.5042L5.41328 73.3883C3.69961 73.0737 2.72266 72.1794 2.5625 70.7882C2.41836 69.5296 2.53047 36.0103 2.69062 35.7453C2.78672 35.5962 3.74766 35.5466 6.58242 35.5466H10.3461L10.25 36.4905ZM41.1762 73.6367H24.8883H8.56836L8.60039 59.7587L8.64844 45.8971L22.9344 45.8143C36.9641 45.7315 37.2363 45.7315 37.5246 45.4003C37.7008 45.2181 38.7418 43.3468 39.8789 41.2601C41 39.1568 42.057 37.2026 42.2332 36.9045L42.5535 36.3746H53.5082C60.7633 36.3746 64.591 36.4408 64.7992 36.5402C65.0875 36.7058 65.1035 36.9542 65.1035 43.2474V49.789H64.2547C63.55 49.789 63.2617 49.8883 62.7332 50.2858L62.0766 50.7661L61.1316 50.3355C60.2027 49.9215 60.1707 49.9049 60.0906 49.1762C60.0105 48.3647 59.6582 47.7685 58.9535 47.2386C58.5531 46.9239 58.2488 46.8908 55.8145 46.8411C53.3961 46.7914 53.0277 46.8246 52.3871 47.1061C51.5543 47.5036 51.1859 48.0169 50.9297 49.1596C50.7535 49.9711 50.7375 50.0043 49.8086 50.3852C48.8957 50.7826 48.8637 50.7826 48.5434 50.468C47.7426 49.7227 46.5094 49.524 45.6285 50.0043C45.3723 50.1533 44.3312 51.147 43.2902 52.2234C41.7687 53.8133 41.4164 54.2935 41.3203 54.8069C41.1762 55.5853 41.4324 56.5624 41.9449 57.1917L42.3133 57.6554L41.8809 58.6656C41.4484 59.6593 41.4164 59.6758 40.7117 59.7587C40.3113 59.8083 39.7668 60.0071 39.5105 60.1892C38.6457 60.8351 38.5176 61.3816 38.5176 64.4785C38.5176 66.8799 38.5656 67.3436 38.8219 67.8404C39.2223 68.6188 40.023 69.1653 40.7758 69.1653C41.3844 69.1653 41.4164 69.1984 41.8488 70.192L42.2973 71.2354L41.8488 71.8813C41.6086 72.229 41.3684 72.7756 41.3043 73.0737L41.2082 73.6367H41.1762ZM41.2082 73.6367H41.1762H41.2082ZM57.5762 50.3024C57.5762 51.1304 57.7684 51.7432 58.1207 51.975C58.2168 52.0413 58.6652 52.2234 59.0977 52.3725C59.5461 52.5215 60.3949 52.9024 60.9875 53.2005C61.5801 53.5152 62.2527 53.7636 62.477 53.7636C62.7172 53.7636 63.1496 53.4986 63.598 53.068L64.3187 52.3725L65.7441 53.8464L67.1695 55.3038L66.5289 56.049C65.7602 56.9599 65.7441 57.407 66.3688 58.7153C66.641 59.2453 66.9934 60.1727 67.1855 60.7854C67.602 62.0772 67.9863 62.3753 69.2676 62.3753H70.0684V64.4454V66.5155H69.3637C68.3227 66.5155 67.7301 66.7971 67.4418 67.4264C67.2977 67.7245 67.1855 68.0557 67.1855 68.1716C67.1855 68.2875 66.8973 68.9997 66.5449 69.778C65.7121 71.6328 65.7121 72.0138 66.577 72.8418L67.2496 73.4877L65.7922 74.9947L64.3187 76.5183L63.598 75.8228C62.7652 75.0278 62.3008 74.945 61.5 75.4584C61.2277 75.6406 60.491 75.9718 59.8824 76.2037C58.0086 76.9158 57.9445 76.9655 57.7523 77.3795C57.6562 77.6114 57.5762 78.1579 57.5762 78.605V79.4331H55.4941H53.4121V78.4725C53.4121 77.2967 53.1719 76.8992 52.259 76.6343C51.8746 76.5183 50.9457 76.1209 50.177 75.7565C48.5754 74.9782 48.2391 74.9947 47.4543 75.8725C47.182 76.1871 46.8777 76.4521 46.7816 76.4521C46.6855 76.4521 45.9648 75.7896 45.1961 74.9947L43.8027 73.5374L44.4273 72.908C45.3242 71.9972 45.3563 71.6825 44.6996 70.2749C44.4113 69.6124 44.027 68.6519 43.8668 68.1219C43.4824 66.8136 43.1941 66.5983 42.025 66.6314L41.0801 66.648V64.5282V62.4084L42.041 62.3422C43.1621 62.2594 43.5145 61.9944 43.7867 61.0007C43.8988 60.6198 44.2832 59.6593 44.6355 58.8644C45.3563 57.1917 45.3402 56.9764 44.4273 55.9993L43.8027 55.3203L45.2281 53.863L46.6535 52.389L47.4223 53.068C47.8387 53.4489 48.3352 53.7636 48.5273 53.7636C48.7195 53.7636 49.4883 53.4655 50.225 53.1177C50.9617 52.7534 51.8746 52.389 52.243 52.2897C53.1398 52.0413 53.4121 51.5941 53.4121 50.4183V49.4577H55.4941H57.5762V50.3024Z" fill="#464B55"/>
<path d="M22.7422 15.6901C21.9254 16.1704 21.7652 17.1806 22.4059 17.8099C22.7582 18.1577 23.3988 18.2405 36.8359 19.4825C49.2801 20.6418 50.9617 20.7577 51.3461 20.559C52.0668 20.1615 52.1949 19.2673 51.6184 18.5883C51.2019 18.108 52.8996 18.2902 33.3926 16.5016C28.4117 16.0544 24.0555 15.6404 23.7031 15.5907C23.3508 15.5576 22.9184 15.5907 22.7422 15.6901Z" fill="#FFC300"/>
<path d="M21.7974 23.4736C21.2369 23.9373 21.2208 24.7984 21.7814 25.3615C21.9896 25.5934 22.2619 25.7755 22.374 25.7755C22.4861 25.7755 28.8122 26.3386 36.4197 27.0507C48.8958 28.1934 50.2892 28.2928 50.6736 28.0775C51.4904 27.5972 51.5384 26.3055 50.7216 25.8915C50.4814 25.759 49.7927 25.6099 49.1681 25.5602C42.3775 24.9309 39.4466 24.666 31.8072 23.9538C26.9224 23.4901 22.7744 23.1258 22.5822 23.1258C22.39 23.1258 22.0376 23.2748 21.7974 23.4736Z" fill="#FFC300"/>
<path d="M52.9316 56.2977C49.0718 57.6557 46.6535 61.7628 47.3101 65.8037C47.8386 68.9668 50.1449 71.7159 53.0757 72.6599C54.5492 73.1236 56.6953 73.1236 58.0726 72.6433C61.5 71.4509 63.8222 68.1553 63.8222 64.4788C63.8222 60.6201 61.3718 57.2748 57.7523 56.1818C56.439 55.7843 54.2289 55.834 52.9316 56.2977ZM57.9285 59.0468C59.1297 59.643 60.0746 60.6035 60.6511 61.8456C61.1316 62.8392 61.1797 63.0877 61.1797 64.4457C61.1797 65.7208 61.1156 66.0686 60.7472 66.8801C58.8414 71.1032 53.316 71.6165 50.7855 67.791C48.7195 64.6609 49.9527 60.4379 53.38 58.9474C54.5972 58.4175 56.7593 58.4672 57.9285 59.0468Z" fill="#FFC300"/>
</svg>
