<svg width="138" height="40" viewBox="0 0 138 40" fill="none" xmlns="http://www.w3.org/2000/svg">
<path d="M48.73 28.9335C47.9713 28.9335 47.3561 28.7562 46.8845 28.4015C46.4129 28.0259 46.0438 27.4521 45.7772 26.6802L39.7793 9.68617C39.4513 8.74728 39.5025 7.95443 39.9331 7.30764C40.3843 6.63998 41.1737 6.30615 42.3015 6.30615C43.0602 6.30615 43.6549 6.49393 44.0855 6.86949C44.5161 7.22418 44.8545 7.78752 45.1005 8.5595L49.6835 22.549H48.2379L53.1592 8.5595C53.4463 7.78752 53.8051 7.22418 54.2358 6.86949C54.6664 6.49393 55.22 6.30615 55.8967 6.30615C56.5734 6.30615 57.1168 6.49393 57.5269 6.86949C57.937 7.22418 58.2754 7.79795 58.5419 8.5908L63.1557 22.549H61.9254L66.6314 8.5595C66.8774 7.78752 67.2055 7.22418 67.6156 6.86949C68.0463 6.49393 68.6409 6.30615 69.3996 6.30615C70.3429 6.30615 71.0298 6.63998 71.4604 7.30764C71.9116 7.95443 71.9628 8.74728 71.6142 9.68617L65.5548 26.7115C65.2883 27.4626 64.9192 28.0259 64.4475 28.4015C63.9964 28.7562 63.3915 28.9335 62.6328 28.9335C61.8536 28.9335 61.2282 28.7562 60.7565 28.4015C60.3054 28.0259 59.9466 27.4521 59.68 26.6802L55.3431 14.2868H56.112L51.6828 26.7115C51.3957 27.4626 51.0266 28.0259 50.5755 28.4015C50.1244 28.7562 49.5092 28.9335 48.73 28.9335Z" fill="white"/>
<path d="M81.4122 28.9961C79.5667 28.9961 77.9673 28.6727 76.6139 28.0259C75.281 27.3582 74.2558 26.4194 73.5381 25.2092C72.8204 23.9991 72.4615 22.5699 72.4615 20.9216C72.4615 19.3359 72.7999 17.9484 73.4765 16.7592C74.1737 15.549 75.117 14.6101 76.3063 13.9425C77.5161 13.254 78.89 12.9097 80.4279 12.9097C81.5557 12.9097 82.581 13.0975 83.5038 13.473C84.4265 13.8277 85.216 14.3598 85.8722 15.0692C86.5283 15.7577 87.0205 16.5923 87.3486 17.5729C87.6972 18.5535 87.8715 19.6489 87.8715 20.859C87.8715 21.2763 87.7587 21.5893 87.5331 21.7979C87.3076 21.9857 86.9487 22.0796 86.4566 22.0796H77.0445V19.4507H83.8729L83.3807 19.8575C83.3807 19.0855 83.2782 18.4596 83.0732 17.9797C82.8681 17.4999 82.5605 17.1347 82.1504 16.8844C81.7608 16.634 81.2687 16.5088 80.674 16.5088C80.0383 16.5088 79.4847 16.6653 79.0131 16.9782C78.5619 17.2703 78.2133 17.7085 77.9673 18.2927C77.7212 18.8769 77.5982 19.6072 77.5982 20.4835V20.7651C77.5982 22.2465 77.916 23.3106 78.5517 23.9574C79.2079 24.5833 80.2126 24.8963 81.566 24.8963C82.0171 24.8963 82.5298 24.8441 83.1039 24.7398C83.6986 24.6146 84.2625 24.4477 84.7956 24.239C85.3288 24.0304 85.7901 23.9991 86.1797 24.1451C86.5694 24.2703 86.8667 24.4998 87.0717 24.8337C87.2973 25.1466 87.4203 25.5118 87.4408 25.929C87.4613 26.3255 87.3691 26.7219 87.164 27.1183C86.959 27.4939 86.6206 27.786 86.149 27.9946C85.4313 28.3284 84.6623 28.5788 83.8421 28.7457C83.0424 28.9126 82.2324 28.9961 81.4122 28.9961Z" fill="white"/>
<path d="M100.811 28.9961C99.6423 28.9961 98.5965 28.7144 97.6738 28.1511C96.7715 27.5669 96.1768 26.8053 95.8898 25.8664L96.2281 24.5833V26.1168C96.2281 27.0348 95.9923 27.7338 95.5207 28.2137C95.0695 28.6936 94.4134 28.9335 93.5521 28.9335C92.6704 28.9335 91.9937 28.6936 91.5221 28.2137C91.071 27.7338 90.8454 27.0348 90.8454 26.1168V9.12284C90.8454 8.20481 91.0812 7.50585 91.5528 7.02597C92.0245 6.54609 92.6909 6.30615 93.5521 6.30615C94.4339 6.30615 95.1106 6.54609 95.5822 7.02597C96.0743 7.50585 96.3204 8.20481 96.3204 9.12284V15.8203H95.9513C96.2589 14.9648 96.8638 14.2659 97.766 13.7234C98.6683 13.1809 99.6833 12.9097 100.811 12.9097C102.123 12.9097 103.272 13.2331 104.256 13.8799C105.261 14.5267 106.04 15.4447 106.594 16.634C107.147 17.8233 107.424 19.2629 107.424 20.9529C107.424 22.6012 107.147 24.0304 106.594 25.2405C106.04 26.4506 105.261 27.3791 104.256 28.0259C103.272 28.6727 102.123 28.9961 100.811 28.9961ZM99.0886 24.8963C99.6423 24.8963 100.124 24.7606 100.534 24.4894C100.965 24.1973 101.303 23.7696 101.549 23.2062C101.795 22.622 101.918 21.8709 101.918 20.9529C101.918 19.555 101.652 18.5535 101.119 17.9484C100.586 17.3225 99.9089 17.0095 99.0886 17.0095C98.535 17.0095 98.0429 17.1452 97.6122 17.4164C97.1816 17.6876 96.8433 18.1154 96.5972 18.6996C96.3511 19.2629 96.2281 20.014 96.2281 20.9529C96.2281 22.3299 96.4947 23.3314 97.0278 23.9574C97.561 24.5833 98.2479 24.8963 99.0886 24.8963Z" fill="white"/>
<path d="M116.286 28.9961C114.318 28.9961 112.862 28.4641 111.918 27.4C110.996 26.315 110.534 24.6876 110.534 22.5177V9.12284C110.534 8.20481 110.77 7.50585 111.242 7.02597C111.713 6.54609 112.38 6.30615 113.241 6.30615C114.123 6.30615 114.8 6.54609 115.271 7.02597C115.763 7.50585 116.009 8.20481 116.009 9.12284V22.3299C116.009 23.1019 116.153 23.6653 116.44 24.02C116.748 24.3746 117.137 24.552 117.609 24.552C117.752 24.552 117.896 24.5416 118.039 24.5207C118.203 24.479 118.378 24.4477 118.562 24.4268C118.911 24.4268 119.167 24.5624 119.331 24.8337C119.516 25.1049 119.608 25.6578 119.608 26.4924C119.608 27.2226 119.465 27.7755 119.177 28.1511C118.89 28.5058 118.449 28.7353 117.855 28.8396C117.691 28.8605 117.455 28.8918 117.147 28.9335C116.84 28.9752 116.553 28.9961 116.286 28.9961Z" fill="white"/>
<path d="M125.821 34.5669C125.185 34.5669 124.672 34.4 124.283 34.0661C123.893 33.7323 123.647 33.2941 123.545 32.7517C123.463 32.2092 123.555 31.6354 123.821 31.0304L125.882 26.4924V28.7457L120.623 16.5088C120.356 15.8829 120.264 15.2987 120.346 14.7562C120.448 14.2137 120.725 13.786 121.176 13.473C121.627 13.1392 122.243 12.9723 123.022 12.9723C123.678 12.9723 124.201 13.1288 124.59 13.4417C125.001 13.7338 125.37 14.318 125.698 15.1944L128.774 23.3314H127.728L130.988 15.1631C131.316 14.3076 131.685 13.7338 132.095 13.4417C132.526 13.1288 133.1 12.9723 133.818 12.9723C134.433 12.9723 134.925 13.1392 135.294 13.473C135.663 13.786 135.889 14.2137 135.971 14.7562C136.053 15.2987 135.961 15.8829 135.694 16.5088L128.712 32.47C128.343 33.3046 127.933 33.8575 127.482 34.1287C127.051 34.4208 126.497 34.5669 125.821 34.5669Z" fill="white"/>
<path fill-rule="evenodd" clip-rule="evenodd" d="M12.9411 30.6249C11.0069 28.8528 9.94877 26.4104 9.01513 23.9754C8.48695 22.598 9.18853 21.1218 10.4554 20.5313C11.7218 19.9437 13.2958 20.7219 13.7898 22.0091C14.1381 22.9179 14.5137 23.807 14.9131 24.6924C14.9359 24.7431 14.9524 24.7806 14.964 24.8078C14.9701 24.8174 14.9777 24.8298 14.987 24.8453C15.0235 24.9058 15.0592 24.9666 15.0949 25.0273C15.16 25.138 15.2251 25.2487 15.2947 25.3576C15.5217 25.7117 15.7668 26.058 16.0411 26.3757C16.0225 26.3517 16.0635 26.3902 16.1227 26.4457C16.1635 26.484 16.2129 26.5303 16.2573 26.5699C16.3482 26.6499 16.4441 26.7224 16.5399 26.7949C16.6215 26.8566 16.703 26.9183 16.7815 26.9845C16.7889 26.9909 16.7955 26.9966 16.8012 27.0017C16.8219 27.011 16.8467 27.0224 16.8762 27.0364L16.9189 27.0566C17.1061 27.1448 17.2884 27.2308 17.4787 27.3128C17.5099 27.3262 17.5365 27.3381 17.5591 27.3486C17.5849 27.3513 17.6156 27.3552 17.652 27.3604C17.7108 27.3685 17.77 27.376 17.8292 27.3836C17.9311 27.3965 18.0332 27.4094 18.1337 27.4255C18.2045 27.4199 18.2746 27.4115 18.3445 27.4005C18.3916 27.3943 18.4341 27.386 18.4706 27.3772C18.5136 27.3553 18.5672 27.3255 18.6178 27.2975C18.7668 27.2148 18.8896 27.1467 18.6363 27.3347C18.7532 27.2485 18.8693 27.1624 18.9845 27.073C19.0087 27.0465 19.0371 27.0138 19.0687 26.9748C19.1748 26.8438 19.2719 26.7054 19.3663 26.5651C19.0234 27.0724 19.4015 26.3607 19.5323 26.1529C19.5559 26.0496 19.5683 25.9369 19.5796 25.8349C19.5842 25.7934 19.5886 25.7537 19.5935 25.7171C19.5971 25.69 19.6023 25.612 19.6078 25.5314C19.6097 25.5034 19.6116 25.4751 19.6134 25.4486C19.6116 25.4129 19.6097 25.3741 19.6079 25.3362C19.6037 25.2494 19.5997 25.1677 19.5969 25.1412C19.5793 24.9718 19.5536 24.8036 19.5222 24.6364C19.5441 24.7649 19.489 24.5715 19.4438 24.4129C19.422 24.3363 19.4024 24.2677 19.395 24.2476C19.3295 24.0677 19.2562 23.8911 19.1768 23.7164C19.1519 23.6597 19.1261 23.6033 19.0993 23.5475C19.0906 23.5326 19.0799 23.5143 19.0672 23.4925C19.0083 23.4098 18.9548 23.3225 18.9013 23.2351C18.8541 23.1579 18.8069 23.0807 18.7557 23.0064C18.6094 22.7945 18.4539 22.5909 18.2914 22.3933C18.1547 22.2513 18.0243 22.1011 17.9009 21.9426C17.898 21.9394 17.8951 21.9363 17.8922 21.9331L17.893 21.9325C16.9991 20.7784 17.3948 19.0991 18.445 18.2267C19.6118 17.2581 21.1117 17.7704 22.0275 18.7723C22.0298 18.7738 22.0322 18.7755 22.0346 18.7772C22.0481 18.7835 22.0616 18.7898 22.0751 18.7959C22.1217 18.8049 22.1898 18.8203 22.2855 18.8444C22.3006 18.8483 22.3142 18.8519 22.3265 18.8555C22.3487 18.8534 22.3834 18.8516 22.4248 18.8494C22.4861 18.8462 22.5619 18.8423 22.6328 18.8356C22.6368 18.8343 22.641 18.8329 22.6453 18.8315C22.7332 18.8034 22.8187 18.772 22.9034 18.7359C22.9816 18.704 23.0583 18.6689 23.1337 18.6314C23.1527 18.6175 23.1723 18.6027 23.1918 18.5874C23.1811 18.5909 23.2285 18.5326 23.334 18.4123C23.3821 18.3514 23.4285 18.2888 23.4724 18.225C23.5187 18.134 23.5616 18.04 23.5999 17.9441C23.6345 17.8666 23.6659 17.7878 23.6949 17.7077C23.7048 17.6538 23.715 17.6001 23.7253 17.5465C23.7604 17.3624 23.7954 17.1792 23.8152 16.9914C23.822 16.9236 23.8188 16.7552 23.8167 16.6439C23.8141 16.5073 23.8132 16.4569 23.8344 16.7844C23.8317 16.7414 23.8291 16.6985 23.8266 16.6557C23.8153 16.4676 23.8041 16.2805 23.7815 16.0926C23.7548 15.8839 23.7167 15.6795 23.678 15.4723C23.6742 15.4518 23.6703 15.4312 23.6665 15.4105C23.739 15.8052 23.6806 15.5701 23.6304 15.368C23.6088 15.2813 23.5888 15.2006 23.5812 15.1784C23.4332 14.7351 23.2435 14.3176 23.0515 13.8949C23.0415 13.8729 23.0315 13.8509 23.0215 13.8289C22.9693 13.7274 22.9357 13.6614 22.9206 13.6307C22.8877 13.5725 22.8543 13.5144 22.82 13.4566C22.697 13.2455 22.5708 13.0368 22.4398 12.8304C22.0695 12.2428 21.6744 11.6729 21.2795 11.1032C21.0943 10.836 20.9092 10.5689 20.7267 10.3001C19.4663 8.44607 18.438 6.54165 17.9127 4.34536L5.77491 8.69249C2.83408 9.74575 1.28748 13.0303 2.32049 16.0288L8.56382 34.1511C9.59683 37.1496 12.8183 38.7265 15.7591 37.6732L33.533 31.3075C36.4738 30.2543 38.0204 26.9697 36.9874 23.9712L30.7441 5.84891C29.7111 2.85043 26.4896 1.27352 23.5488 2.32678L22.6923 2.63353C22.7806 2.93283 22.8853 3.26493 22.9653 3.50976C22.9941 3.61041 23.0181 3.67346 23.046 3.74666C23.0613 3.78679 23.0777 3.82997 23.0968 3.88407C23.2027 4.19087 23.3239 4.49112 23.4574 4.78729C23.4688 4.81203 23.5144 4.90144 23.5672 5.00502C23.6874 5.24103 23.8451 5.55057 23.7221 5.33622C23.8338 5.53221 23.9483 5.72612 24.0656 5.91794C24.4803 6.59632 24.9323 7.24792 25.3843 7.89943C25.6294 8.25261 25.8744 8.60577 26.1134 8.96316C27.5809 11.1561 28.9099 13.6403 28.9411 16.3796C28.9754 19.389 27.7172 22.2789 24.96 23.5846C24.8296 23.6463 24.6978 23.7029 24.5647 23.7543C24.7107 24.5146 24.7645 25.2972 24.7131 26.0888C24.5437 28.7018 22.8904 31.2401 20.5221 32.2411C17.978 33.3177 14.9374 32.4543 12.9411 30.6249ZM23.4094 18.3808C23.3936 18.4149 23.3099 18.4926 23.2198 18.5652C23.2536 18.5348 23.3168 18.4733 23.4094 18.3808ZM23.116 18.6442C23.1127 18.646 23.1093 18.6478 23.106 18.6496C23.0628 18.6731 23.0196 18.6966 22.9764 18.7204C22.9934 18.7246 23.0495 18.6916 23.116 18.6442ZM22.8502 18.7828C22.8327 18.8056 22.7659 18.8202 22.6845 18.8301C22.7291 18.8175 22.7843 18.8018 22.8502 18.7828ZM18.8956 27.159C18.8927 27.1588 18.9163 27.1334 18.9748 27.0836C18.9276 27.1343 18.8984 27.1592 18.8956 27.159ZM18.6082 27.3301C18.6035 27.3355 18.5561 27.3559 18.4802 27.3749C18.5749 27.3341 18.6129 27.3246 18.6082 27.3301Z" fill="white"/>
</svg>
